HIERARCHY
ROOT Hips
{
	OFFSET -3.958830 18.904000 13.208200
	CHANNELS 6 Xposition Yposition Zposition Zrotation Yrotation Xrotation 
	JOINT LHipJoint
	{
		OFFSET 0.000000 0.000000 0.000000
		CHANNELS 3 Zrotation Yrotation Xrotation
		JOINT LeftUpLeg
		{
			OFFSET 1.800000 -1.400000 0.085000
			CHANNELS 3 Zrotation Yrotation Xrotation
			JOINT LeftLeg
			{
				OFFSET 2.215000 -6.000000 0.000000
				CHANNELS 3 Zrotation Yrotation Xrotation
				JOINT LeftFoot
				{
					OFFSET 2.500000 -6.900000 0.000000
					CHANNELS 3 Zrotation Yrotation Xrotation
					JOINT LeftToeBase
					{
						OFFSET 0.200000 -0.500000 1.950000
						CHANNELS 3 Zrotation Yrotation Xrotation
						End Site
						{
							OFFSET 0.000000 0.000000 0.000000
						}
					}
				}
			}
		}
	}
	JOINT RHipJoint
	{
		OFFSET 0.000000 0.000000 0.000000
		CHANNELS 3 Zrotation Yrotation Xrotation
		JOINT RightUpLeg
		{
			OFFSET -1.800000 -1.400000 0.085000
			CHANNELS 3 Zrotation Yrotation Xrotation
			JOINT RightLeg
			{
				OFFSET -2.215000 -6.000000 0.000000
				CHANNELS 3 Zrotation Yrotation Xrotation
				JOINT RightFoot
				{
					OFFSET -2.500000 -6.900000 0.000000
					CHANNELS 3 Zrotation Yrotation Xrotation
					JOINT RightToeBase
					{
						OFFSET -0.200000 -0.500000 1.950000
						CHANNELS 3 Zrotation Yrotation Xrotation
						End Site
						{
							OFFSET 0.000000 0.000000 0.000000
						}
					}
				}
			}
		}
	}
	JOINT LowerBack
	{
		OFFSET 0.000000 0.000000 0.000000
		CHANNELS 3 Zrotation Yrotation Xrotation
		JOINT Spine
		{
			OFFSET -0.087000 1.940000 -0.288900
			CHANNELS 3 Zrotation Yrotation Xrotation
			JOINT Spine1
			{
				OFFSET 0.000000 1.950000 0.060000
				CHANNELS 3 Zrotation Yrotation Xrotation
				JOINT Neck
				{
					OFFSET 0.000000 0.000000 0.000000
					CHANNELS 3 Zrotation Yrotation Xrotation
					JOINT Neck1
					{
						OFFSET 0.000000 1.600000 0.340000
						CHANNELS 3 Zrotation Yrotation Xrotation
						JOINT Head
						{
							OFFSET 0.000000 1.667000 -0.240000
							CHANNELS 3 Zrotation Yrotation Xrotation
							End Site
							{
								OFFSET 0.000000 0.000000 0.000000
							}
						}
					}
				}
				JOINT LeftShoulder
				{
					OFFSET 0.000000 0.000000 0.000000
					CHANNELS 3 Zrotation Yrotation Xrotation
					JOINT LeftArm
					{
						OFFSET 2.700000 1.550000 -0.730000
						CHANNELS 3 Zrotation Yrotation Xrotation
						JOINT LeftForeArm
						{
							OFFSET 5.450000 0.000000 0.000000
							CHANNELS 3 Zrotation Yrotation Xrotation
							JOINT LeftHand
							{
								OFFSET 3.450000 0.000000 0.000000
								CHANNELS 3 Zrotation Yrotation Xrotation
								JOINT LeftHandIndex1
								{
									OFFSET 0.750000 0.000000 0.000000
									CHANNELS 3 Zrotation Yrotation Xrotation
									End Site
									{
										OFFSET 0.000000 0.000000 0.000000
									}
								}
							}
						}
					}
				}
				JOINT RightShoulder
				{
					OFFSET 0.000000 0.000000 0.000000
					CHANNELS 3 Zrotation Yrotation Xrotation
					JOINT RightArm
					{
						OFFSET -2.700000 1.550000 -0.730000
						CHANNELS 3 Zrotation Yrotation Xrotation
						JOINT RightForeArm
						{
							OFFSET -5.450000 0.000000 0.000000
							CHANNELS 3 Zrotation Yrotation Xrotation
							JOINT RightHand
							{
								OFFSET -3.450000 0.000000 0.000000
								CHANNELS 3 Zrotation Yrotation Xrotation
								JOINT RightHandIndex1
								{
									OFFSET -0.750000 0.000000 0.000000
									CHANNELS 3 Zrotation Yrotation Xrotation
									End Site
									{
										OFFSET 0.000000 0.000000 0.000000
									}
								}
							}
						}
					}
				}
			}
		}
	}
}
MOTION
Frames: 7
Frame Time: 0.016667
0.346410 17.438730 -1.254780 -19.905888 9.384076 -5.296361 -14.803164 11.118661 1.827058 14.917445 -0.705402 -2.440969 -6.860148 4.888289 3.302716 -0.399711 4.563036 3.242989 0.308430 0.024600 0.281520 18.995945 -9.248575 5.922101 -40.412815 -0.670345 -37.532918 97.893204 -47.291709 22.298030 -2.388379 -11.353878 0.717503 0.176040 0.256330 0.125070 -5.062157 0.695444 -8.961506 38.777096 -5.751311 9.312874 -9.469895 -2.471940 9.841546 3.046881 5.180525 -17.273238 11.677398 -25.198714 16.464940 -8.779900 -18.951210 -6.332320 -9.941291 -26.789360 13.277922 12.808073 6.371415 1.405272 11.443656 0.324353 -0.505602 -4.187454 2.664911 0.262550 0.188580 -0.199050 0.129930 0.522622 26.166549 7.877225 7.495784 14.418853 -16.551968 -79.959883 49.925761 -44.138380 1.974603 -1.305346 -0.252700 0.231860 -0.020470 -0.129880 
0.348100 17.438640 -1.255820 -19.692396 9.373561 -4.740598 -14.778269 11.032069 1.795673 14.561529 -0.741637 -2.770390 -6.748185 4.764380 3.088552 -0.426856 4.500104 3.271966 0.314290 0.036380 0.271390 19.036567 -9.301201 5.916004 -40.754793 -0.937068 -37.133213 98.884581 -46.491883 21.190633 -2.371762 -11.308619 0.730142 0.194220 0.278400 0.128660 -5.156324 0.919087 -8.913661 38.722782 -5.371051 8.252547 -9.459384 -2.378987 9.863305 2.940916 5.099149 -16.758169 11.645121 -25.566105 16.125658 -8.940040 -19.296980 -5.993830 -10.109191 -26.460656 12.837143 13.059111 4.827139 1.330144 10.183774 1.238429 -0.597756 -4.216655 2.635609 0.244740 0.206300 -0.212100 0.142290 1.099119 25.554120 7.810675 8.268817 14.773336 -15.983469 -79.399808 49.224350 -43.342948 1.940149 -1.325483 -0.256470 0.243650 -0.019540 -0.119910 
0.347780 17.438230 -1.265110 -19.284486 9.025712 -3.930159 -14.742646 10.905250 1.746950 14.006457 -0.757138 -3.206987 -6.510788 4.570091 2.762466 -0.433225 4.376385 3.327345 0.332040 0.071070 0.242290 19.094004 -9.374343 5.922353 -41.464470 -1.182938 -36.108610 100.597780 -44.858024 19.277179 -2.342529 -11.219528 0.757702 0.219630 0.309890 0.129950 -5.288383 1.249637 -8.851378 38.596944 -4.883296 6.903502 -9.504841 -2.193821 10.280067 2.744972 4.737979 -16.191320 11.243825 -25.934158 15.735800 -8.268160 -20.152930 -5.528860 -9.689869 -25.816764 12.366367 12.184870 2.913395 1.133192 9.057326 2.823671 -0.686184 -4.256579 2.636658 0.201680 0.221810 -0.234580 0.173080 1.386393 24.836068 7.730644 9.435634 15.284902 -15.475677 -77.306210 47.775229 -41.107107 1.935850 -1.418591 -0.242990 0.246610 -0.032390 -0.085890 
0.355870 17.441540 -1.283730 -19.018950 7.938435 -2.623759 -14.717640 10.771856 1.690643 13.366800 -0.829225 -4.004465 -6.102839 4.312498 2.417232 -0.472627 4.221017 3.384159 0.352760 0.114690 0.229050 19.146622 -9.391154 5.996554 -42.234346 -1.359072 -35.768311 102.637484 -43.108340 17.227886 -2.321468 -11.146887 0.777719 0.257370 0.338450 0.141770 -5.394235 1.549871 -8.805321 38.290335 -4.437050 5.564887 -8.907381 -2.245851 10.679983 2.714865 4.525262 -15.791622 11.240052 -25.828272 14.918837 -8.509380 -19.864720 -5.106040 -9.094288 -25.033381 12.364769 10.325120 3.072359 1.356922 8.217657 3.082298 -0.706800 -4.279273 2.675209 0.159800 0.254940 -0.252370 0.193500 1.066080 24.067599 7.175613 9.641672 16.745869 -14.613833 -72.190525 45.938501 -36.488330 1.918214 -1.538416 -0.234690 0.248320 -0.040010 -0.067360 
0.364450 17.449440 -1.308990 -19.278111 6.928202 -1.493629 -14.696647 10.621385 1.655880 13.328734 -0.919667 -4.780555 -5.884102 4.105486 1.880569 -0.499566 4.156674 3.418694 0.355640 0.145710 0.183880 19.191579 -9.381177 6.073389 -43.324599 -1.596153 -34.368375 105.738495 -40.490081 14.227225 -2.274132 -11.015335 0.818916 0.297680 0.408600 0.163850 -5.480579 1.816402 -8.780689 38.904362 -4.273152 4.335422 -9.083336 -2.184037 11.403149 2.903938 4.176482 -15.606698 11.165138 -25.665190 13.716817 -8.593780 -19.713250 -4.354720 -9.271883 -24.603307 12.365474 9.906529 3.934050 1.660359 7.503150 2.896079 -0.758790 -4.329493 2.721115 0.088180 0.319330 -0.296210 0.218780 1.084347 23.936560 6.942939 9.089549 17.065605 -14.390018 -67.942891 43.759938 -32.675870 1.925180 -1.689987 -0.229070 0.262060 -0.025510 -0.034730 
0.361840 17.450850 -1.341590 -19.396567 5.883373 -0.575939 -14.690995 10.524265 1.642400 13.237341 -0.991424 -5.426012 -5.737465 3.944796 1.465608 -0.540719 4.095585 3.434119 0.386460 0.178030 0.204540 19.208738 -9.300852 6.190561 -43.795188 -1.476514 -32.705419 107.743109 -37.209161 11.647597 -2.230648 -10.793392 0.868597 0.331320 0.411990 0.173850 -5.510393 1.913262 -8.802806 39.111611 -4.100297 3.872191 -9.226893 -1.923619 11.753582 3.209567 4.115115 -15.683747 11.385111 -25.616450 13.027673 -8.728730 -19.395670 -4.563310 -9.764001 -24.332141 12.327818 9.931746 5.143672 1.939845 7.649478 1.640193 -0.733148 -4.303642 2.772925 0.079290 0.331980 -0.302190 0.222700 1.031307 23.951385 7.014655 8.320779 16.693108 -14.328016 -64.255100 41.482816 -29.295465 1.954421 -1.812972 -0.229400 0.262200 -0.031440 -0.040980 
0.367350 17.453840 -1.377450 -19.721856 4.632630 0.123800 -14.687159 10.448776 1.636445 13.390743 -1.030155 -5.704601 -5.553249 3.830920 1.014192 -0.576970 4.088050 3.437314 0.380010 0.163410 0.192470 19.225798 -9.236273 6.287247 -44.527125 -1.509850 -32.071070 109.922970 -35.792030 10.058842 -2.200291 -10.667051 0.908867 0.339980 0.429680 0.162690 -5.536955 1.969154 -8.838943 39.804991 -4.121367 3.656284 -9.709038 -1.600121 12.253516 3.443638 3.934505 -15.893804 11.234804 -25.522027 12.887076 -8.293680 -19.557630 -4.739480 -9.591030 -24.159452 12.326044 9.237096 5.285291 1.881290 8.561835 2.130738 -0.724754 -4.338478 2.764702 0.084270 0.337360 -0.325590 0.217680 0.466577 24.125635 7.241391 8.427294 16.575211 -14.505420 -61.756338 38.550706 -26.687407 1.995565 -1.905391 -0.251540 0.279620 -0.010820 -0.049230 
